<?xml version="1.0" encoding="UTF-8"?>
<!DOCTYPE svg PUBLIC "-//W3C//DTD SVG 1.1//EN" "http://www.w3.org/Graphics/SVG/1.1/DTD/svg11.dtd">
<svg xmlns="http://www.w3.org/2000/svg" version="1.1" width="512px" height="512px" style="shape-rendering:geometricPrecision; text-rendering:geometricPrecision; image-rendering:optimizeQuality; fill-rule:evenodd; clip-rule:evenodd" xmlns:xlink="http://www.w3.org/1999/xlink">
<g><path style="opacity:0.998" fill="#338af2" d="M 233.5,-0.5 C 248.5,-0.5 263.5,-0.5 278.5,-0.5C 311.579,2.93693 342.913,12.2703 372.5,27.5C 257.833,142.833 142.833,257.833 27.5,372.5C 12.2703,342.913 2.93693,311.579 -0.5,278.5C -0.5,263.167 -0.5,247.833 -0.5,232.5C 9.30698,148.242 49.6403,83.0754 120.5,37C 155.422,15.9704 193.088,3.4704 233.5,-0.5 Z"/></g>
<g><path style="opacity:0.999" fill="#fdd945" d="M 372.5,27.5 C 383.171,32.4971 393.171,38.4971 402.5,45.5C 283.167,164.167 164.167,283.167 45.5,402.5C 38.4971,393.171 32.4971,383.171 27.5,372.5C 142.833,257.833 257.833,142.833 372.5,27.5 Z"/></g>
<g><path style="opacity:1" fill="#d80727" d="M 402.5,45.5 C 427.167,62.8333 448.167,83.8333 465.5,108.5C 346.833,227.833 227.833,346.833 108.5,465.5C 83.8333,448.167 62.8333,427.167 45.5,402.5C 164.167,283.167 283.167,164.167 402.5,45.5 Z"/></g>
<g><path style="opacity:1" fill="#fcd846" d="M 149.5,119.5 C 163.833,120.167 178.167,120.833 192.5,121.5C 180.987,129.757 169.653,138.257 158.5,147C 162.83,159.989 167.163,172.989 171.5,186C 171.167,186.5 170.833,187 170.5,187.5C 159.088,179.044 147.588,170.711 136,162.5C 124.412,170.711 112.912,179.044 101.5,187.5C 104.114,173.804 108.114,160.304 113.5,147C 102.347,138.257 91.0133,129.757 79.5,121.5C 93.8333,120.833 108.167,120.167 122.5,119.5C 126.509,105.641 131.009,91.9742 136,78.5C 141.006,92.0174 145.506,105.684 149.5,119.5 Z"/></g>
<g><path style="opacity:0.999" fill="#fdd945" d="M 465.5,108.5 C 472.503,117.829 478.503,127.829 483.5,138.5C 368.167,253.167 253.167,368.167 138.5,483.5C 127.829,478.503 117.829,472.503 108.5,465.5C 227.833,346.833 346.833,227.833 465.5,108.5 Z"/></g>
<g><path style="opacity:1" fill="#acb98a" d="M 122.5,119.5 C 108.167,120.167 93.8333,120.833 79.5,121.5C 78.7109,121.217 78.0442,120.717 77.5,120C 92.4963,119.5 107.496,119.333 122.5,119.5 Z"/></g>
<g><path style="opacity:1" fill="#acb98b" d="M 149.5,119.5 C 164.504,119.333 179.504,119.5 194.5,120C 193.956,120.717 193.289,121.217 192.5,121.5C 178.167,120.833 163.833,120.167 149.5,119.5 Z"/></g>
<g><path style="opacity:0.998" fill="#338af2" d="M 483.5,138.5 C 498.73,168.087 508.063,199.421 511.5,232.5C 511.5,247.5 511.5,262.5 511.5,277.5C 499.016,377.807 447.016,449.307 355.5,492C 330.316,502.296 304.316,508.796 277.5,511.5C 262.5,511.5 247.5,511.5 232.5,511.5C 199.43,508.032 168.096,498.699 138.5,483.5C 253.167,368.167 368.167,253.167 483.5,138.5 Z"/></g>
</svg>
